# xmcd
#
# Track frame offsets: 
#        150
#        14846
#        26594
#        46224
#        64776
#        80223
#        96784
#        112114
#        124017
#        135698
#        150832
#        167128
#        180203
#        196516
#
# Disc length: 2775 seconds
#
# Revision: 0
# Processed by: cddbd v1.5.2PL0 Copyright (c) Steve Scherf et al.
# Submitted via: ExactAudioCopy v0.95b4
#
DISCID=b00ad50e
DTITLE=Tião Carreiro and Pardinho - De 1974 A 1975
DYEAR=2005
DGENRE=Country
TTITLE0=O Pulo Do Gato
TTITLE1=Na Barra Do Leão
TTITLE2=Gato De Três Cores
TTITLE3=Sabrina
TTITLE4=Velho Peão
TTITLE5=Ferreirinha
TTITLE6=Vivendo Longe Do Meu Bem
TTITLE7=Furacão
TTITLE8=Sete Flechas
TTITLE9=Travessia Do Araguaia
TTITLE10=As Três Cuiabanas
TTITLE11=Boiadeiro Punho De Aço
TTITLE12=Consagração
TTITLE13=Minha Vida
EXTD=
EXTT0=O Pulo do Gato
EXTT1=
EXTT2=
EXTT3=
EXTT4=
EXTT5=
EXTT6=
EXTT7=
EXTT8=
EXTT9=
EXTT10=
EXTT11=
EXTT12=
EXTT13=
PLAYORDER=
